<svg xmlns="http://www.w3.org/2000/svg" viewBox="0 0 1024 1024">
  <rect width="1024" height="1024" rx="192" fill="#000515"/>
  <circle cx="512" cy="512" r="332" fill="#e7f9fe"/>
  <circle cx="512" cy="512" r="284" fill="#95cff5"/>
  <path fill="#1a3666" d="M332 308h210c70 0 126 19 168 56 38 34 57 78 57 132 0 42-12 78-37 109-24 30-58 52-101 66l150 205H633L499 688h-44v188H332V308Zm123 104v178h80c34 0 61-8 80-24 19-17 29-40 29-70 0-27-9-48-28-62-19-15-46-22-81-22h-80Z"/>
  <path fill="#fefffe" d="M455 412v178h80c34 0 61-8 80-24 19-17 29-40 29-70 0-27-9-48-28-62-19-15-46-22-81-22h-80Z" opacity=".22"/>
</svg>

